<svg height="512pt" viewBox="0 0 512 512" width="512pt" xmlns="http://www.w3.org/2000/svg"><path d="m503.441406 379.085938v74.503906c.109375 27.433594-22.085937 49.757812-49.570312 49.867187-1.5625.007813-3.125-.058593-4.6875-.203125-76.578125-8.304687-150.125-34.414062-214.757813-76.246094-60.125-38.136718-111.101562-89.011718-149.308593-149.015624-42.042969-64.777344-68.214844-138.550782-76.390626-215.316407-2.472656-27.320312 17.71875-51.472656 45.09375-53.9375 1.472657-.136719 2.949219-.203125 4.4375-.203125h74.65625c24.976563-.25 46.277344 18.027344 49.765626 42.714844 3.148437 23.84375 8.996093 47.257812 17.417968 69.785156 6.835938 18.152344 2.464844 38.613282-11.195312 52.40625l-31.609375 31.539063c35.421875 62.171875 87.007812 113.652343 149.308593 149.015625l31.609376-31.539063c13.8125-13.636719 34.320312-17.996093 52.503906-11.179687 22.578125 8.40625 46.035156 14.242187 69.929687 17.382812 25.019531 3.535156 43.425781 25.207032 42.796875 50.425782zm0 0" fill="#23a24d"/><path d="m461.566406 135.75-11.535156 89.972656-28.28125-31.957031-76.679688 67.867187-22.621093-25.566406 76.679687-67.855468-28.269531-31.960938zm0 0" fill="#366db6"/><path d="m247.457031 177.082031 11.535157-89.972656 28.28125 31.957031 76.679687-67.867187 22.621094 25.558593-76.679688 67.863282 28.273438 31.949218zm0 0" fill="#dd352e"/><g fill="#4d007e"><path d="m453.605469 512c-1.722657 0-3.457031-.078125-5.179688-.230469-77.679687-8.421875-153.226562-35.25-218.625-77.585937-60.695312-38.492188-113.238281-90.921875-151.867187-151.59375-42.539063-65.527344-69.417969-141.285156-77.6875-219.015625-1.417969-15.617188 3.3125-30.722657 13.285156-42.660157 9.976562-11.929687 24.015625-19.285156 39.519531-20.683593 1.757813-.1445315 3.480469-.230469 5.207031-.230469h74.65625.5625c28.835938 0 53.597657 21.425781 57.652344 50.046875 3.070313 23.253906 8.78125 46.105469 16.964844 68.003906 7.976562 21.1875 2.824219 45.304688-13.132812 61.398438l-26.984376 26.929687c33.425782 56.449219 80.675782 103.601563 137.234376 136.953125l26.972656-26.917969c16.171875-15.945312 40.296875-21.074218 61.535156-13.121093 21.929688 8.164062 44.824219 13.855469 68.042969 16.910156 29.363281 4.132813 50.902343 29.476563 50.21875 58.976563v74.410156c.0625 15.511718-5.9375 30.15625-16.910157 41.199218-10.96875 11.03125-25.585937 17.152344-41.15625 17.210938-.105468 0-.207031 0-.308593 0zm-320.214844-494.933594c-.136719 0-.261719 0-.398437 0h-74.734376c-1.246093 0-2.484374.070313-3.714843.171875-10.921875.988281-20.855469 6.1875-27.910157 14.625-7.058593 8.441407-10.394531 19.105469-9.40625 30.046875 7.980469 74.929688 33.9375 148.09375 75.058594 211.445313 37.335938 58.632812 88.058594 109.253906 146.722656 146.449219 63.242188 40.945312 136.21875 66.851562 211.105469 74.976562 1.136719.109375 2.433594.167969 3.722657.152344 11.023437-.042969 21.367187-4.371094 29.125-12.175782 7.753906-7.800781 11.996093-18.144531 11.953124-29.132812v-74.539062c0-.078126 0-.144532 0-.214844.523438-20.871094-14.726562-38.828125-35.464843-41.753906-24.402344-3.207032-48.554688-9.214844-71.710938-17.835938-15.046875-5.628906-32.128906-2.003906-43.53125 9.253906l-31.574219 31.503906c-2.710937 2.6875-6.894531 3.257813-10.238281 1.382813-63.605469-36.089844-116.34375-88.722656-152.515625-152.21875-1.902344-3.34375-1.332031-7.550781 1.390625-10.265625l31.605469-31.539062c11.238281-11.339844 14.882812-28.375 9.242188-43.347657-8.644532-23.128906-14.667969-47.234375-17.894532-71.683593-2.855468-20.164063-20.375-35.300782-40.832031-35.300782zm0 0"/><path d="m59.722656 153.601562c-3.675781 0-7.066406-2.390624-8.175781-6.09375-8.300781-27.828124-14.136719-57.277343-17.363281-87.542968-.769532-8.601563 3.617187-14.867188 5.546875-17.152344 2.378906-2.859375 7.6875-7.78125 16.390625-8.578125.710937-.066406 1.417968-.101563 2.136718-.101563h69.742188c4.710938 0 8.53125 3.816407 8.53125 8.535157s-3.820312 8.53125-8.53125 8.53125h-69.742188c-3.175781.265625-4.730468 1.707031-5.429687 2.542969-.453125.539062-1.851563 2.398437-1.65625 4.566406 3.097656 29.074218 8.730469 57.496094 16.734375 84.316406 1.347656 4.515625-1.21875 9.277344-5.734375 10.617188-.816406.238281-1.636719.359374-2.449219.359374zm0 0"/><path d="m453.765625 477.867188c-.167969 0-1.652344-.035157-2.394531-.113282-30.261719-3.285156-59.460938-9.101562-86.886719-17.3125-4.515625-1.347656-7.082031-6.109375-5.726563-10.625 1.355469-4.511718 6.136719-7.054687 10.625-5.726562 26.433594 7.921875 54.601563 13.535156 83.746094 16.691406l.75.019531c1.722656-.007812 3.507813-.75 4.835938-2.089843 1.339844-1.351563 2.074218-3.160157 2.066406-5.085938l.007812-69.625c0-4.71875 3.824219-8.535156 8.535157-8.535156 4.710937 0 8.53125 3.824218 8.53125 8.535156l-.007813 69.589844c.027344 6.449218-2.464844 12.550781-7.011718 17.132812-4.550782 4.585938-10.609376 7.117188-17.070313 7.144532zm0 0"/><path d="m345.070312 270.164062c-.171874 0-.351562-.007812-.519531-.015624-2.261719-.136719-4.371093-1.167969-5.871093-2.859376l-22.625-25.566406c-3.121094-3.53125-2.789063-8.925781.734374-12.046875l70.289063-62.199219-22.621094-25.566406c-2.21875-2.507812-2.765625-6.085937-1.398437-9.140625 1.363281-3.054687 4.394531-5.035156 7.746094-5.050781l90.710937-.511719h.042969c2.441406 0 4.769531 1.050781 6.390625 2.875 1.628906 1.851563 2.382812 4.300781 2.074219 6.742188l-11.535157 89.976562c-.429687 3.324219-2.757812 6.089844-5.957031 7.074219-3.191406.980469-6.683594.007812-8.902344-2.503906l-22.613281-25.5625-70.296875 62.214844c-1.5625 1.382812-3.574219 2.140624-5.648438 2.140624zm-10.582031-33.363281 11.316407 12.78125 70.289062-62.207031c1.6875-1.492188 3.882812-2.203125 6.175781-2.125 2.261719.136719 4.371094 1.167969 5.871094 2.859375l15.8125 17.867187 7.902344-61.644531-62.15625.34375 15.820312 17.875c3.125 3.535157 2.789063 8.925781-.734375 12.050781zm0 0"/><path d="m247.457031 185.617188c-2.441406 0-4.769531-1.050782-6.390625-2.875-1.628906-1.851563-2.390625-4.300782-2.074218-6.742188l11.535156-89.976562c.429687-3.328126 2.757812-6.089844 5.957031-7.074219 3.199219-.964844 6.675781 0 8.902344 2.5l22.613281 25.566406 70.296875-62.207031c3.523437-3.113282 8.917969-2.773438 12.046875.734375l22.625 25.558593c1.5 1.695313 2.261719 3.914063 2.125 6.175782-.136719 2.261718-1.171875 4.378906-2.859375 5.871094l-70.289063 62.207031 22.621094 25.558593c2.21875 2.507813 2.765625 6.085938 1.398438 9.140626-1.363282 3.054687-4.394532 5.035156-7.746094 5.050781l-90.710938.511719c-.015624 0-.035156 0-.050781 0zm17.613281-78.769532-7.902343 61.644532 62.148437-.34375-15.8125-17.867188c-3.125-3.535156-2.789062-8.925781.734375-12.050781l70.289063-62.207031-11.308594-12.78125-70.296875 62.207031c-3.523437 3.113281-8.917969 2.789062-12.046875-.734375zm0 0"/></g></svg>