<?xml version="1.0" ?><svg height="32" id="svg4063" version="1.1" viewBox="0 0 32 32.000001" width="32" xmlns="http://www.w3.org/2000/svg" xmlns:cc="http://creativecommons.org/ns#" xmlns:dc="http://purl.org/dc/elements/1.1/" xmlns:inkscape="http://www.inkscape.org/namespaces/inkscape" xmlns:rdf="http://www.w3.org/1999/02/22-rdf-syntax-ns#" xmlns:sodipodi="http://sodipodi.sourceforge.net/DTD/sodipodi-0.dtd" xmlns:svg="http://www.w3.org/2000/svg"><defs id="defs4065"/><g id="layer1" transform="translate(0,-1020.3621)"><g id="g5883"><path d="m 4.9609079,1025.8645 21.0815081,0 c 0.808422,0 1.459246,0.6508 1.459246,1.4592 l 0,21.0816 c 0,0.8084 -0.650824,1.4592 -1.459246,1.4592 l -21.0815081,0 c -0.8084222,0 -1.4592459,-0.6508 -1.4592459,-1.4592 l 0,-21.0816 c 0,-0.8084 0.6508237,-1.4592 1.4592459,-1.4592 z" id="rect4204" style="fill:#10bafc;fill-opacity:1;stroke:none;stroke-width:1"/><path d="m 4.9609375,1025.3652 c -1.0767638,0 -1.9589844,0.8823 -1.9589844,1.959 l 0,21.082 c 0,1.0768 0.8822206,1.959 1.9589844,1.959 l 21.0820315,0 c 1.076763,0 1.958984,-0.8822 1.958984,-1.959 l 0,-21.082 c 0,-1.0767 -0.882221,-1.959 -1.958984,-1.959 l -21.0820315,0 z m 0,1 21.0820315,0 c 0.54008,0 0.958984,0.419 0.958984,0.959 l 0,21.082 c 0,0.5401 -0.418904,0.959 -0.958984,0.959 l -21.0820315,0 c -0.5400806,0 -0.9589844,-0.4189 -0.9589844,-0.959 l 0,-21.082 c 0,-0.54 0.4189038,-0.959 0.9589844,-0.959 z" id="rect4199" style="color:#000000;font-style:normal;font-variant:normal;font-weight:normal;font-stretch:normal;font-size:medium;line-height:normal;font-family:sans-serif;text-indent:0;text-align:start;text-decoration:none;text-decoration-line:none;text-decoration-style:solid;text-decoration-color:#000000;letter-spacing:normal;word-spacing:normal;text-transform:none;direction:ltr;block-progression:tb;writing-mode:lr-tb;baseline-shift:baseline;text-anchor:start;white-space:normal;clip-rule:nonzero;display:inline;overflow:visible;visibility:visible;opacity:1;isolation:auto;mix-blend-mode:normal;color-interpolation:sRGB;color-interpolation-filters:linearRGB;solid-color:#000000;solid-opacity:1;fill:#000000;fill-opacity:1;fill-rule:nonzero;stroke:none;stroke-width:1;stroke-linecap:butt;stroke-linejoin:miter;stroke-miterlimit:4;stroke-dasharray:none;stroke-dashoffset:0;stroke-opacity:1;color-rendering:auto;image-rendering:auto;shape-rendering:auto;text-rendering:auto;enable-background:accumulate"/><path d="m 8.5016961,1032.8646 a 3.5000033,3.5561447 0 0 1 -1.7500017,3.0797 3.5000033,3.5561447 0 0 1 -3.5000034,0 3.5000033,3.5561447 0 0 1 -1.7500016,-3.0797 l 3.5000034,0 z" id="path4206" style="fill:#0084ff;fill-opacity:1;stroke:none;stroke-width:1.00000012;stroke-linecap:round;stroke-linejoin:round"/><path d="m 1.50169,1032.7646 2,-8.4 c 0.19248,-0.8084 0.66901,-1.5 1.50002,-1.5 l 20.99997,0 c 0.83101,0 1.30754,0.6916 1.50002,1.5 l 2,8.4" id="path4202" style="fill:#0084ff;fill-opacity:1;stroke:none;stroke-width:1;stroke-linecap:round;stroke-linejoin:round"/><path d="m 15.501696,1032.8646 a 3.5000033,3.5561447 0 0 1 -1.750002,3.0797 3.5000033,3.5561447 0 0 1 -3.500003,0 3.5000033,3.5561447 0 0 1 -1.7500016,-3.0797 l 3.5000036,0 z" id="path4210" style="fill:#10bafc;fill-opacity:1;stroke:none;stroke-width:1.00000012;stroke-linecap:round;stroke-linejoin:round"/><path d="m 8.50207,1032.7646 1.00001,-9.9 6.05,0 0,9.9" id="path4214" style="fill:#10bafc;fill-opacity:1;stroke:none;stroke-width:1;stroke-linecap:round;stroke-linejoin:round"/><path d="m 8.5019531,1032.3652 a 0.50005006,0.50005006 0 0 0 -0.5,0.5 c 0,1.4455 0.7585944,2.7839 1.9960938,3.5098 1.2374991,0.7259 2.7683601,0.7259 4.0058591,0 1.237499,-0.7259 1.998047,-2.0643 1.998047,-3.5098 a 0.50005006,0.50005006 0 0 0 -0.5,-0.5 l -3.5,0 -3.4999999,0 z m 0.6308594,1 2.8691405,0 2.867188,0 c -0.152271,0.8841 -0.594592,1.693 -1.371094,2.1485 -0.928303,0.5445 -2.065838,0.5445 -2.994141,0 -0.7766009,-0.4556 -1.2188993,-1.2642 -1.3710935,-2.1485 z" id="path3833" style="color:#000000;font-style:normal;font-variant:normal;font-weight:normal;font-stretch:normal;font-size:medium;line-height:normal;font-family:sans-serif;text-indent:0;text-align:start;text-decoration:none;text-decoration-line:none;text-decoration-style:solid;text-decoration-color:#000000;letter-spacing:normal;word-spacing:normal;text-transform:none;direction:ltr;block-progression:tb;writing-mode:lr-tb;baseline-shift:baseline;text-anchor:start;white-space:normal;clip-rule:nonzero;display:inline;overflow:visible;visibility:visible;opacity:1;isolation:auto;mix-blend-mode:normal;color-interpolation:sRGB;color-interpolation-filters:linearRGB;solid-color:#000000;solid-opacity:1;fill:#000000;fill-opacity:1;fill-rule:nonzero;stroke:none;stroke-width:1.00000012;stroke-linecap:round;stroke-linejoin:round;stroke-miterlimit:4;stroke-dasharray:none;stroke-dashoffset:0;stroke-opacity:1;color-rendering:auto;image-rendering:auto;shape-rendering:auto;text-rendering:auto;enable-background:accumulate"/><path d="m 1.5019531,1032.3652 a 0.50005006,0.50005006 0 0 0 -0.5,0.5 c 4.7e-6,1.4455 0.7585949,2.7839 1.9960938,3.5098 1.2375029,0.7259 2.7683564,0.7259 4.0058593,0 1.2374989,-0.7259 1.9980423,-2.0643 1.9980469,-3.5098 a 0.50005006,0.50005006 0 0 0 -0.5,-0.5 l -3.5,0 -3.5,0 z m 0.6308594,1 2.8691406,0 2.8671875,0 c -0.1522729,0.8841 -0.5945906,1.693 -1.3710937,2.1485 -0.9283067,0.5445 -2.065834,0.5445 -2.9941407,0 -0.7766014,-0.4556 -1.218897,-1.2642 -1.3710937,-2.1485 z" id="path3831" style="color:#000000;font-style:normal;font-variant:normal;font-weight:normal;font-stretch:normal;font-size:medium;line-height:normal;font-family:sans-serif;text-indent:0;text-align:start;text-decoration:none;text-decoration-line:none;text-decoration-style:solid;text-decoration-color:#000000;letter-spacing:normal;word-spacing:normal;text-transform:none;direction:ltr;block-progression:tb;writing-mode:lr-tb;baseline-shift:baseline;text-anchor:start;white-space:normal;clip-rule:nonzero;display:inline;overflow:visible;visibility:visible;opacity:1;isolation:auto;mix-blend-mode:normal;color-interpolation:sRGB;color-interpolation-filters:linearRGB;solid-color:#000000;solid-opacity:1;fill:#000000;fill-opacity:1;fill-rule:nonzero;stroke:none;stroke-width:1.00000012;stroke-linecap:round;stroke-linejoin:round;stroke-miterlimit:4;stroke-dasharray:none;stroke-dashoffset:0;stroke-opacity:1;color-rendering:auto;image-rendering:auto;shape-rendering:auto;text-rendering:auto;enable-background:accumulate"/><path d="m 22.501726,1032.8646 a 3.5000033,3.5561447 0 0 1 -1.750002,3.0797 3.5000033,3.5561447 0 0 1 -3.500003,0 3.5000033,3.5561447 0 0 1 -1.750002,-3.0797 l 3.500003,0 z" id="path4208" style="fill:#0084ff;fill-opacity:1;stroke:none;stroke-width:1.00000012;stroke-linecap:round;stroke-linejoin:round"/><path d="m 29.501726,1032.8646 a 3.5000033,3.5561447 0 0 1 -1.750002,3.0797 3.5000033,3.5561447 0 0 1 -3.500003,0 3.5000033,3.5561447 0 0 1 -1.750002,-3.0797 l 3.500003,0 z" id="path4212" style="fill:#10bafc;fill-opacity:1;stroke:none;stroke-width:1.00000012;stroke-linecap:round;stroke-linejoin:round"/><path d="m 15.501953,1032.3652 a 0.50005006,0.50005006 0 0 0 -0.5,0.5 c 0,1.4455 0.758595,2.7839 1.996094,3.5098 1.237499,0.7259 2.76836,0.7259 4.005859,0 1.2375,-0.7259 1.998047,-2.0643 1.998047,-3.5098 a 0.50005006,0.50005006 0 0 0 -0.5,-0.5 l -3.5,0 -3.5,0 z m 0.630859,1 2.869141,0 2.867188,0 c -0.152271,0.8841 -0.594591,1.693 -1.371094,2.1485 -0.928303,0.5445 -2.065838,0.5445 -2.994141,0 -0.776601,-0.4556 -1.218899,-1.2642 -1.371094,-2.1485 z" id="path3835" style="color:#000000;font-style:normal;font-variant:normal;font-weight:normal;font-stretch:normal;font-size:medium;line-height:normal;font-family:sans-serif;text-indent:0;text-align:start;text-decoration:none;text-decoration-line:none;text-decoration-style:solid;text-decoration-color:#000000;letter-spacing:normal;word-spacing:normal;text-transform:none;direction:ltr;block-progression:tb;writing-mode:lr-tb;baseline-shift:baseline;text-anchor:start;white-space:normal;clip-rule:nonzero;display:inline;overflow:visible;visibility:visible;opacity:1;isolation:auto;mix-blend-mode:normal;color-interpolation:sRGB;color-interpolation-filters:linearRGB;solid-color:#000000;solid-opacity:1;fill:#000000;fill-opacity:1;fill-rule:nonzero;stroke:none;stroke-width:1.00000012;stroke-linecap:round;stroke-linejoin:round;stroke-miterlimit:4;stroke-dasharray:none;stroke-dashoffset:0;stroke-opacity:1;color-rendering:auto;image-rendering:auto;shape-rendering:auto;text-rendering:auto;enable-background:accumulate"/><path d="m 22.55208,1032.7646 -1,-9.9 4.4496,0 c 0.83101,0 1.30754,0.6916 1.50002,1.5 l 2,8.4" id="path4216" style="fill:#10bafc;fill-opacity:1;stroke:none;stroke-width:1;stroke-linecap:round;stroke-linejoin:round"/><path d="m 22.501953,1032.3652 a 0.50005006,0.50005006 0 0 0 -0.5,0.5 c 0,1.4455 0.758595,2.7839 1.996094,3.5098 1.237499,0.7259 2.76836,0.7259 4.005859,0 1.2375,-0.7259 1.998047,-2.0643 1.998047,-3.5098 a 0.50005006,0.50005006 0 0 0 -0.5,-0.5 l -3.5,0 -3.5,0 z m 0.630859,1 2.869141,0 2.867188,0 c -0.152271,0.8841 -0.594591,1.693 -1.371094,2.1485 -0.928303,0.5445 -2.065838,0.5445 -2.994141,0 -0.776601,-0.4556 -1.218899,-1.2642 -1.371094,-2.1485 z" id="path3837" style="color:#000000;font-style:normal;font-variant:normal;font-weight:normal;font-stretch:normal;font-size:medium;line-height:normal;font-family:sans-serif;text-indent:0;text-align:start;text-decoration:none;text-decoration-line:none;text-decoration-style:solid;text-decoration-color:#000000;letter-spacing:normal;word-spacing:normal;text-transform:none;direction:ltr;block-progression:tb;writing-mode:lr-tb;baseline-shift:baseline;text-anchor:start;white-space:normal;clip-rule:nonzero;display:inline;overflow:visible;visibility:visible;opacity:1;isolation:auto;mix-blend-mode:normal;color-interpolation:sRGB;color-interpolation-filters:linearRGB;solid-color:#000000;solid-opacity:1;fill:#000000;fill-opacity:1;fill-rule:nonzero;stroke:none;stroke-width:1.00000012;stroke-linecap:round;stroke-linejoin:round;stroke-miterlimit:4;stroke-dasharray:none;stroke-dashoffset:0;stroke-opacity:1;color-rendering:auto;image-rendering:auto;shape-rendering:auto;text-rendering:auto;enable-background:accumulate"/><path d="m 5.0019531,1022.3652 c -0.5542117,0 -1.0374362,0.2522 -1.3613281,0.6114 -0.3238919,0.3591 -0.5146665,0.8081 -0.625,1.2714 l -2,8.4004 a 0.50005,0.50005 0 1 0 0.9726562,0.2325 l 2,-8.4004 c 0.082146,-0.345 0.2242857,-0.6452 0.3945313,-0.834 0.1702456,-0.1888 0.3423423,-0.2813 0.6191406,-0.2813 l 20.9999999,0 c 0.276798,0 0.446942,0.093 0.617188,0.2813 0.170245,0.1888 0.314338,0.489 0.396484,0.834 l 2,8.4004 a 0.50005,0.50005 0 1 0 0.972656,-0.2325 l -2,-8.4004 c -0.110333,-0.4633 -0.301108,-0.9123 -0.625,-1.2714 -0.323892,-0.3592 -0.807116,-0.6114 -1.361328,-0.6114 l -20.9999999,0 z" id="path3839" style="color:#000000;font-style:normal;font-variant:normal;font-weight:normal;font-stretch:normal;font-size:medium;line-height:normal;font-family:sans-serif;text-indent:0;text-align:start;text-decoration:none;text-decoration-line:none;text-decoration-style:solid;text-decoration-color:#000000;letter-spacing:normal;word-spacing:normal;text-transform:none;direction:ltr;block-progression:tb;writing-mode:lr-tb;baseline-shift:baseline;text-anchor:start;white-space:normal;clip-rule:nonzero;display:inline;overflow:visible;visibility:visible;opacity:1;isolation:auto;mix-blend-mode:normal;color-interpolation:sRGB;color-interpolation-filters:linearRGB;solid-color:#000000;solid-opacity:1;fill:#000000;fill-opacity:1;fill-rule:nonzero;stroke:none;stroke-width:1;stroke-linecap:round;stroke-linejoin:round;stroke-miterlimit:4;stroke-dasharray:none;stroke-dashoffset:0;stroke-opacity:1;color-rendering:auto;image-rendering:auto;shape-rendering:auto;text-rendering:auto;enable-background:accumulate"/><path d="m 9.4960938,1022.3594 a 0.50005,0.50005 0 0 0 -0.4921876,0.457 l -1,9.9024 A 0.50062589,0.50062589 0 0 0 9,1032.8203 l 1,-9.9023 a 0.50005,0.50005 0 0 0 -0.5039062,-0.5586 z" id="path3841" style="color:#000000;font-style:normal;font-variant:normal;font-weight:normal;font-stretch:normal;font-size:medium;line-height:normal;font-family:sans-serif;text-indent:0;text-align:start;text-decoration:none;text-decoration-line:none;text-decoration-style:solid;text-decoration-color:#000000;letter-spacing:normal;word-spacing:normal;text-transform:none;direction:ltr;block-progression:tb;writing-mode:lr-tb;baseline-shift:baseline;text-anchor:start;white-space:normal;clip-rule:nonzero;display:inline;overflow:visible;visibility:visible;opacity:1;isolation:auto;mix-blend-mode:normal;color-interpolation:sRGB;color-interpolation-filters:linearRGB;solid-color:#000000;solid-opacity:1;fill:#000000;fill-opacity:1;fill-rule:evenodd;stroke:none;stroke-width:1px;stroke-linecap:round;stroke-linejoin:round;stroke-miterlimit:4;stroke-dasharray:none;stroke-dashoffset:0;stroke-opacity:1;color-rendering:auto;image-rendering:auto;shape-rendering:auto;text-rendering:auto;enable-background:accumulate"/><path d="m 15.494141,1022.3594 a 0.50005,0.50005 0 0 0 -0.492188,0.5078 l 0,9.9023 a 0.50005,0.50005 0 1 0 1,0 l 0,-9.9023 a 0.50005,0.50005 0 0 0 -0.507812,-0.5078 z" id="path3843" style="color:#000000;font-style:normal;font-variant:normal;font-weight:normal;font-stretch:normal;font-size:medium;line-height:normal;font-family:sans-serif;text-indent:0;text-align:start;text-decoration:none;text-decoration-line:none;text-decoration-style:solid;text-decoration-color:#000000;letter-spacing:normal;word-spacing:normal;text-transform:none;direction:ltr;block-progression:tb;writing-mode:lr-tb;baseline-shift:baseline;text-anchor:start;white-space:normal;clip-rule:nonzero;display:inline;overflow:visible;visibility:visible;opacity:1;isolation:auto;mix-blend-mode:normal;color-interpolation:sRGB;color-interpolation-filters:linearRGB;solid-color:#000000;solid-opacity:1;fill:#000000;fill-opacity:1;fill-rule:evenodd;stroke:none;stroke-width:1px;stroke-linecap:round;stroke-linejoin:round;stroke-miterlimit:4;stroke-dasharray:none;stroke-dashoffset:0;stroke-opacity:1;color-rendering:auto;image-rendering:auto;shape-rendering:auto;text-rendering:auto;enable-background:accumulate"/><path d="m 21.492188,1022.3594 a 0.50005,0.50005 0 0 0 -0.488282,0.5586 l 1,9.9023 A 0.50062598,0.50062598 0 0 0 23,1032.7188 l -1,-9.9024 a 0.50005,0.50005 0 0 0 -0.507812,-0.457 z" id="path3845" style="color:#000000;font-style:normal;font-variant:normal;font-weight:normal;font-stretch:normal;font-size:medium;line-height:normal;font-family:sans-serif;text-indent:0;text-align:start;text-decoration:none;text-decoration-line:none;text-decoration-style:solid;text-decoration-color:#000000;letter-spacing:normal;word-spacing:normal;text-transform:none;direction:ltr;block-progression:tb;writing-mode:lr-tb;baseline-shift:baseline;text-anchor:start;white-space:normal;clip-rule:nonzero;display:inline;overflow:visible;visibility:visible;opacity:1;isolation:auto;mix-blend-mode:normal;color-interpolation:sRGB;color-interpolation-filters:linearRGB;solid-color:#000000;solid-opacity:1;fill:#000000;fill-opacity:1;fill-rule:evenodd;stroke:none;stroke-width:1px;stroke-linecap:round;stroke-linejoin:round;stroke-miterlimit:4;stroke-dasharray:none;stroke-dashoffset:0;stroke-opacity:1;color-rendering:auto;image-rendering:auto;shape-rendering:auto;text-rendering:auto;enable-background:accumulate"/><path d="m 21.609375,1041.3906 c -0.638918,0.084 -1.25118,0.3723 -1.730469,0.8516 -0.958618,0.9585 -1.154412,2.449 -0.476562,3.623 0.677829,1.174 2.065577,1.7474 3.375,1.3965 1.309431,-0.3508 2.224597,-1.5408 2.224609,-2.8965 a 0.50005,0.50005 0 0 0 -0.5,-0.5 l -2.5,0 a 0.50005,0.50005 0 1 0 0,1 l 1.830078,0 c -0.186613,0.668 -0.615806,1.245 -1.3125,1.4317 -0.876937,0.2349 -1.796069,-0.1455 -2.25,-0.9317 -0.45393,-0.7862 -0.325515,-1.7741 0.316407,-2.416 0.641961,-0.642 1.629792,-0.7723 2.416015,-0.3183 a 0.50005,0.50005 0 1 0 0.5,-0.8653 c -0.587008,-0.3389 -1.25366,-0.4591 -1.892578,-0.375 z" id="path3847" style="color:#000000;font-style:normal;font-variant:normal;font-weight:normal;font-stretch:normal;font-size:medium;line-height:normal;font-family:sans-serif;text-indent:0;text-align:start;text-decoration:none;text-decoration-line:none;text-decoration-style:solid;text-decoration-color:#000000;letter-spacing:normal;word-spacing:normal;text-transform:none;direction:ltr;block-progression:tb;writing-mode:lr-tb;baseline-shift:baseline;text-anchor:start;white-space:normal;clip-rule:nonzero;display:inline;overflow:visible;visibility:visible;opacity:1;isolation:auto;mix-blend-mode:normal;color-interpolation:sRGB;color-interpolation-filters:linearRGB;solid-color:#000000;solid-opacity:1;fill:#000000;fill-opacity:1;fill-rule:nonzero;stroke:none;stroke-width:1;stroke-linecap:round;stroke-linejoin:round;stroke-miterlimit:4.0999999;stroke-dasharray:none;stroke-dashoffset:0;stroke-opacity:1;color-rendering:auto;image-rendering:auto;shape-rendering:auto;text-rendering:auto;enable-background:accumulate"/></g></g></svg>