<svg height="512" viewBox="0 0 64 64" width="512" xmlns="http://www.w3.org/2000/svg"><g id="Browser-Tool-File-Pencil-Online"><path d="m57 19v38a4 4 0 0 1 -4 4h-42a3.988 3.988 0 0 1 -3.64-2.36 3.931 3.931 0 0 1 -.36-1.64v-38z" fill="#5aaae7"/><path d="m57 15v4h-50v-4a4 4 0 0 1 4-4h42a4 4 0 0 1 4 4z" fill="#ff5023"/><path d="m41 55a2.006 2.006 0 0 1 -2 2h-2l-3 2h-25a3.931 3.931 0 0 1 -1.64-.36 3.931 3.931 0 0 1 -.36-1.64v-5.46a3.989 3.989 0 0 1 2-.54h25l3 2h2a2.015 2.015 0 0 1 2 2z" fill="#3d9ae2"/><path d="m35 51v4l-3 2h-1v-4-4h1z" fill="#c6c5ca"/><path d="m38.41 51.59a1.955 1.955 0 0 1 .59 1.41 2.006 2.006 0 0 1 -2 2h-2v-4h2a1.955 1.955 0 0 1 1.41.59z" fill="#acabb1"/><path d="m12 53v4h-3v-8h3z" fill="#e6e7e8"/><path d="m7 49a4 4 0 0 0 0 8h2v-8z" fill="#d1d3d4"/><path d="m12 53h19v4h-19z" fill="#00b39d"/><path d="m12 49h19v4h-19z" fill="#00ccb3"/><path d="m7 39h34v8h-34z" fill="#3d9ae2"/><path d="m57 19v16h-18a2.006 2.006 0 0 1 -2-2v-14z" fill="#3d9ae2"/><path d="m61 9v22a2.006 2.006 0 0 1 -2 2h-22a2.006 2.006 0 0 1 -2-2v-26a2.006 2.006 0 0 1 2-2h18v4a2.006 2.006 0 0 0 2 2z" fill="#e6e7e8"/><path d="m61 9h-4a2.006 2.006 0 0 1 -2-2v-4z" fill="#bcbec0"/><path d="m3 37h36v8h-36z" fill="#ff9811"/><path d="m56 57a3 3 0 0 1 -3 3h-42a2.989 2.989 0 0 1 -1.983-.75l-1.325 1.5a5 5 0 0 0 3.308 1.25h42a5.006 5.006 0 0 0 5-5v-21h-2z"/><path d="m8 20h24v-2h-24v-3a3 3 0 0 1 3-3h21v-2h-21a5.006 5.006 0 0 0 -5 5v19h2z"/><path d="m12 14h2v2h-2z"/><path d="m16 14h2v2h-2z"/><path d="m20 14h2v2h-2z"/><path d="m61.707 8.293-6-6a1 1 0 0 0 -.707-.293h-18a3 3 0 0 0 -3 3v26a3 3 0 0 0 3 3h22a3 3 0 0 0 3-3v-22a1 1 0 0 0 -.293-.707zm-5.707-2.879 2.586 2.586h-1.586a1 1 0 0 1 -1-1zm3 26.586h-22a1 1 0 0 1 -1-1v-26a1 1 0 0 1 1-1h17v3a3 3 0 0 0 3 3h3v21a1 1 0 0 1 -1 1z"/><path d="m40 14h16v2h-16z"/><path d="m40 18h16v2h-16z"/><path d="m40 22h16v2h-16z"/><path d="m40 26h16v2h-16z"/><path d="m40 8h10v2h-10z"/><path d="m32.555 57.832 2.745-1.832h1.7a3 3 0 0 0 0-6h-1.7l-2.748-1.832a1.006 1.006 0 0 0 -.552-.168h-25a5 5 0 0 0 0 10h25a1.006 1.006 0 0 0 .555-.168zm-2.555-5.832h-17v-2h17zm-19 4h-1v-6h1zm2-2h17v2h-17zm25-1a1 1 0 0 1 -1 1h-1v-2h1a1 1 0 0 1 1 1zm-4-1.465v2.93l-2 1.335v-5.6zm-30 1.465a3 3 0 0 1 3-3h1v6h-1a3 3 0 0 1 -3-3z"/><path d="m3 46h36a1 1 0 0 0 1-1v-8a1 1 0 0 0 -1-1h-36a1 1 0 0 0 -1 1v8a1 1 0 0 0 1 1zm1-8h34v6h-4v-4h-2v4h-2v-2h-2v2h-2v-2h-2v2h-2v-4h-2v4h-2v-2h-2v2h-2v-2h-2v2h-2v-4h-2v4h-4z"/><path d="m12 24h18v2h-18z"/><path d="m12 28h18v2h-18z"/><path d="m12 32h18v2h-18z"/><path d="m44 42h8v2h-8z"/><path d="m44 38h8v2h-8z"/><path d="m44 46h8v2h-8z"/><path d="m44 50h8v2h-8z"/><path d="m44 54h8v2h-8z"/></g></svg>